<?xml version="1.0" encoding="UTF-8" standalone="no"?>
<!DOCTYPE svg PUBLIC "-//W3C//DTD SVG 1.1//EN" "http://www.w3.org/Graphics/SVG/1.1/DTD/svg11.dtd">
<svg width="100%" height="100%" viewBox="0 0 32 32" version="1.1" xmlns="http://www.w3.org/2000/svg" xmlns:xlink="http://www.w3.org/1999/xlink" xml:space="preserve" style="fill-rule:evenodd;clip-rule:evenodd;stroke-linejoin:round;stroke-miterlimit:1.41421;">
    <path d="M19.913,21.094C18.96,21.919 17.874,22.588 16.707,23.065C15.32,23.633 13.824,23.923 12.325,23.923C10.826,23.923 9.331,23.633 7.943,23.065C6.604,22.518 5.372,21.717 4.325,20.719C3.314,19.755 2.479,18.61 1.872,17.352C1.355,16.279 1.006,15.126 0.84,13.946C0.663,12.681 0.695,11.386 0.935,10.131C1.141,9.06 1.5,8.018 1.997,7.047C2.592,5.888 3.382,4.831 4.325,3.932C5.236,3.064 6.287,2.344 7.426,1.812C8.419,1.348 9.477,1.027 10.56,0.861C11.095,0.78 11.634,0.739 12.176,0.729C12.325,0.728 12.325,0.728 12.475,0.729C13.016,0.739 13.555,0.78 14.091,0.861C15.174,1.027 16.232,1.348 17.224,1.812C18.364,2.344 19.415,3.064 20.325,3.932C21.268,4.831 22.059,5.888 22.653,7.047C23.151,8.018 23.51,9.06 23.715,10.131C23.956,11.386 23.988,12.681 23.81,13.946C23.645,15.126 23.296,16.279 22.779,17.352C22.336,18.269 21.772,19.126 21.108,19.897C21.515,20.284 21.92,20.675 22.322,21.068C22.52,20.998 22.726,20.959 22.937,20.946C23.01,20.944 23.009,20.944 23.081,20.945C23.226,20.951 23.368,20.967 23.508,21C23.765,21.061 24.01,21.171 24.226,21.323C24.304,21.378 24.377,21.44 24.449,21.504C26.6,23.583 28.717,25.699 30.795,27.851C31.006,28.084 31.168,28.352 31.261,28.652C31.34,28.904 31.37,29.171 31.349,29.434C31.331,29.673 31.27,29.909 31.172,30.127C31.093,30.302 30.99,30.466 30.867,30.613C30.494,31.056 29.941,31.329 29.362,31.354C29.146,31.363 28.93,31.339 28.721,31.281C28.394,31.192 28.102,31.022 27.851,30.795C25.699,28.717 23.583,26.6 21.504,24.449C21.278,24.197 21.108,23.906 21.018,23.578C20.961,23.37 20.937,23.153 20.946,22.937C20.956,22.711 21.003,22.489 21.084,22.28C20.695,21.883 20.304,21.488 19.913,21.094ZM12.202,2.812C11.758,2.82 11.315,2.854 10.875,2.921C9.988,3.057 9.121,3.319 8.308,3.699C6.434,4.575 4.87,6.066 3.905,7.895C3.488,8.685 3.184,9.533 3.005,10.407C2.786,11.474 2.753,12.579 2.904,13.657C3.039,14.624 3.325,15.568 3.749,16.447C4.247,17.48 4.933,18.42 5.763,19.211C6.622,20.03 7.633,20.688 8.732,21.137C9.87,21.602 11.096,21.84 12.325,21.84C13.555,21.84 14.781,21.602 15.919,21.137C17.018,20.688 18.029,20.03 18.888,19.211C19.718,18.42 20.404,17.48 20.902,16.447C21.326,15.568 21.612,14.624 21.747,13.657C21.898,12.579 21.865,11.474 21.646,10.407C21.467,9.533 21.163,8.685 20.746,7.895C19.781,6.066 18.217,4.575 16.343,3.699C15.529,3.319 14.663,3.057 13.776,2.921C13.336,2.854 12.893,2.82 12.449,2.812C12.325,2.811 12.325,2.811 12.202,2.812Z" style="fill:rgb(77,77,77);fill-rule:nonzero;"/>
</svg>
